Coordinates
version=1
nRows=26
nColumns=24
inDegrees=yes

Units are S.I. units (second, meters, Newtons, ...)
Angles are in degrees.

endheader
time	pelvis_tilt	pelvis_list	pelvis_rotation	pelvis_tx	pelvis_ty	pelvis_tz	hip_flexion_r	hip_adduction_r	hip_rotation_r	knee_angle_r	ankle_angle_r	subtalar_angle_r	mtp_angle_r	hip_flexion_l	hip_adduction_l	hip_rotation_l	knee_angle_l	ankle_angle_l	subtalar_angle_l	mtp_angle_l	lumbar_extension	lumbar_bending	lumbar_rotation
      1.70366667	     -0.18568052	      9.90183969	     -6.70263354	      1.34591001	      1.00045165	      0.26867487	     13.58752512	    -13.62037700	      1.69431237	    -68.24309362	     -7.84119645	    -11.45643286	      4.90169235	     10.72922967	     14.63675352	      4.69209050	    -15.81730465	      3.46137892	    -20.73399484	     -3.88107314	    -11.58429790	     -5.00128630	      2.31058097
      1.70783333	     -0.13042992	      9.70110468	     -6.54007263	      1.35082458	      1.00154975	      0.26837154	     14.06278457	    -13.31787473	      1.72556398	    -68.00492859	     -6.60852261	    -10.94055050	      4.96053279	     10.07070811	     14.50159976	      5.02984384	    -15.35547513	      3.49776620	    -20.73187502	     -3.87108504	    -11.67639134	     -4.69899519	      2.01781128
      1.71200000	     -0.06829346	      9.53070715	     -6.38862839	      1.35569399	      1.00259831	      0.26807606	     14.54015638	    -13.05358940	      1.76498577	    -67.74348864	     -5.38998518	    -10.49186392	      5.01605682	      9.40168653	     14.39480250	      5.38372596	    -14.85975070	      3.43384913	    -20.82763883	     -3.86152875	    -11.77695289	     -4.42863754	      1.64263331
      1.71616667	     -0.00662734	      9.33577669	     -6.24912410	      1.36058357	      1.00363620	      0.26780127	     15.00102093	    -12.76055891	      1.81154917	    -67.42105761	     -4.26210666	    -10.01614624	      5.05422990	      8.73065413	     14.25305591	      5.71851767	    -14.36908811	      3.44362049	    -20.87579089	     -3.85667912	    -11.86437449	     -4.12462246	      1.35889848
      1.72033333	      0.06283648	      9.15432408	     -6.11456299	      1.36546118	      1.00462641	      0.26753260	     15.45231808	    -12.48674302	      1.85892344	    -67.06653984	     -3.16825035	     -9.59074138	      5.08132683	      8.05728916	     14.12078001	      6.04117595	    -13.87518783	      3.41323574	    -20.95136842	     -3.85284647	    -11.96782984	     -3.84346499	      1.05223394
      1.72450000	      0.12800427	      8.98468918	     -5.97609907	      1.37033551	      1.00556448	      0.26727035	     15.90374448	    -12.22736765	      1.90417235	    -66.67737134	     -2.13777046	     -9.21098017	      5.09812871	      7.38788427	     13.99561501	      6.36959643	    -13.37958605	      3.37996147	    -21.02746179	     -3.85052576	    -12.06274755	     -3.57648978	      0.74166155
      1.72866667	      0.19688617	      8.81085981	     -5.84240822	      1.37517507	      1.00647009	      0.26701855	     16.33923891	    -11.96523315	      1.94935384	    -66.24060646	     -1.15670264	     -8.87539200	      5.10543111	      6.71866084	     13.85809075	      6.68159481	    -12.87206266	      3.33378600	    -21.09631919	     -3.85003008	    -12.16448041	     -3.30459146	      0.44813822
      1.73283333	      0.24833453	      8.64537373	     -5.71941084	      1.38003608	      1.00728951	      0.26679445	     16.79480578	    -11.70672859	      2.01033356	    -65.77596631	     -0.24090694	     -8.58273921	      5.10080973	      6.07124106	     13.72189254	      6.98024168	    -12.37714026	      3.29085374	    -21.17219845	     -3.85017341	    -12.24305078	     -3.05013061	      0.16936329
      1.73700000	      0.31810525	      8.49791161	     -5.60036481	      1.38488402	      1.00807968	      0.26657010	     17.22424700	    -11.47902059	      2.06464718	    -65.27419573	      0.63809366	     -8.30655592	      5.08789772	      5.41172653	     13.60205026	      7.26391501	    -11.88280781	      3.24921566	    -21.24343696	     -3.85030396	    -12.33814341	     -2.81010106	     -0.10343814
      1.74116667	      0.36664604	      8.34117104	     -5.47492110	      1.38965613	      1.00879454	      0.26636630	     17.67287464	    -11.23047947	      2.12765369	    -64.74039674	      1.41756143	     -8.11439631	      5.06443040	      4.79037895	     13.46423790	      7.54026928	    -11.41741819	      3.21710305	    -21.29434960	     -3.85326852	    -12.42035809	     -2.56900507	     -0.36700125
      1.74533333	      0.42651240	      8.19217747	     -5.35425265	      1.39449549	      1.00949128	      0.26617650	     18.08649416	    -10.99878190	      2.18067783	    -64.15620700	      2.18074863	     -7.97051576	      5.02015185	      4.15061898	     13.33049585	      7.80650078	    -10.93909952	      3.15820541	    -21.36736215	     -3.85736929	    -12.50200771	     -2.34513388	     -0.64593713
      1.74950000	      0.47216696	      8.05222935	     -5.23596292	      1.39928936	      1.01009485	      0.26598492	     18.51795723	    -10.77758384	      2.24231176	    -63.54918122	      2.86980817	     -7.83030438	      4.98363603	      3.54572716	     13.20146039	      8.05601156	    -10.48788387	      3.15594826	    -21.38358586	     -3.85855557	    -12.57877827	     -2.10912549	     -0.87245707
      1.75366667	      0.51547828	      7.91718087	     -5.14023396	      1.40408698	      1.01064811	      0.26584225	     18.94893184	    -10.55470920	      2.32504178	    -62.90575972	      3.49610253	     -7.76968587	      4.94082304	      2.94011700	     13.07018463	      8.27137809	    -10.02182398	      3.12439207	    -21.42508679	     -3.86201800	    -12.64508007	     -1.89383705	     -1.09323119
      1.75783333	      0.55141018	      7.77757924	     -5.01770850	      1.40887475	      1.01115828	      0.26568422	     19.36507678	    -10.33526189	      2.37968734	    -62.21949676	      4.08063074	     -7.75179275	      4.88890515	      2.35336183	     12.93208077	      8.50551415	     -9.58899239	      3.10963158	    -21.45238716	     -3.86439401	    -12.70887671	     -1.67325942	     -1.34890650
      1.76200000	      0.55058394	      7.65377909	     -4.89484035	      1.41364805	      1.01154547	      0.26553880	     19.81706683	    -10.13086229	      2.43610099	    -61.51241153	      4.63377167	     -7.82070884	      4.86536705	      1.83773863	     12.80184309	      8.66468317	     -9.20592206	      3.11587624	    -21.40761673	     -3.86379185	    -12.72397971	     -1.47937074	     -1.48244265
      1.76616667	      0.64359660	      7.54231208	     -4.78226921	      1.41836515	      1.01200217	      0.26539129	     20.16058232	     -9.95844618	      2.49402910	    -60.76876747	      5.10340216	     -7.83863559	      4.79960620	      1.20048197	     12.69425568	      8.92271142	     -8.77440229	      3.10604635	    -21.46504505	     -3.86549427	    -12.86326499	     -1.28986860	     -1.81531762
      1.77033333	      0.62840449	      7.43383398	     -4.66050948	      1.42312871	      1.01227781	      0.26526755	     20.60740528	     -9.77578495	      2.55261292	    -59.99488401	      5.58630791	     -7.95975234	      4.76837136	      0.70233028	     12.57260719	      9.08882202	     -8.38767905	      3.10697628	    -21.42294523	     -3.86509727	    -12.86486491	     -1.11041765	     -1.94629228
      1.77450000	      0.67669393	      7.33778365	     -4.52460022	      1.42785417	      1.01258488	      0.26512317	     20.97067201	     -9.62477827	      2.59515936	    -59.18311425	      5.95070977	     -8.10900960	      4.64968879	      0.12198636	     12.47200968	      9.37331944	     -7.97345847	      3.05297103	    -21.53739060	     -3.86579741	    -12.94321760	     -0.93944907	     -2.32790693
      1.77866667	      0.67252136	      7.23522076	     -4.40352354	      1.43254388	      1.01276272	      0.26501934	     21.38473477	     -9.45560115	      2.65664176	    -58.34277785	      6.32636004	     -8.24914068	      4.59922912	     -0.35914670	     12.35422642	      9.53264341	     -7.63744880	      3.09114317	    -21.50657571	     -3.86286661	    -12.96855871	     -0.77795812	     -2.46496554
      1.78283333	      0.69964009	      7.14402678	     -4.27670611	      1.43728177	      1.01293962	      0.26489186	     21.74614440	     -9.31576734	      2.69828962	    -57.46594927	      6.61847974	     -8.45440905	      4.50886431	     -0.89666853	     12.25130166	      9.75678978	     -7.26717326	      3.12550674	    -21.52018465	     -3.86003219	    -13.01799959	     -0.59944154	     -2.75104956
      1.78700000	      0.68916332	      7.05188477	     -4.13009822	      1.44195690	      1.01303765	      0.26477881	     22.13394442	     -9.17577494	      2.72744755	    -56.55565737	      6.92512714	     -8.67395423	      4.45169380	     -1.36754756	     12.13737545	      9.94108135	     -6.93348917	      3.13902639	    -21.48218241	     -3.85671429	    -13.04348234	     -0.44574528	     -2.92034320
      1.79116667	      0.69464234	      6.96938834	     -3.98339457	      1.44662228	      1.01310468	      0.26466583	     22.48949118	     -9.05436363	      2.75328095	    -55.61013306	      7.14227426	     -8.93521342	      4.37846314	     -1.85560591	     12.03395678	     10.14920560	     -6.60046607	      3.17637547	    -21.47891557	     -3.85346850	    -13.07858776	     -0.29431654	     -3.17326237
      1.79533333	      0.71641508	      6.90757327	     -3.85634182	      1.45132613	      1.01313393	      0.26457641	     22.82691787	     -8.95850797	      2.79132190	    -54.64777642	      7.30240644	     -9.21459925	      4.26168145	     -2.37669265	     11.95095377	     10.36109757	     -6.22925390	      3.19796269	    -21.50599182	     -3.84831505	    -13.12876553	     -0.15220003	     -3.47961958
      1.79950000	      0.70454814	      6.84424166	     -3.70326665	      1.45598229	      1.01307577	      0.26446538	     23.17897991	     -8.86988995	      2.80864669	    -53.65059945	      7.46909894	     -9.48503066	      4.15574547	     -2.83002092	     11.86266775	     10.55920692	     -5.92569422	      3.24675297	    -21.49632351	     -3.84182304	    -13.14167726	     -0.02070586	     -3.71328649
      1.80366667	      0.67898809	      6.79422172	     -3.54154822	      1.46061345	      1.01297102	      0.26436297	     23.53330179	     -8.80353354	      2.81080703	    -52.62436239	      7.62117882	     -9.77110937	      4.07282234	     -3.26401189	     11.78257720	     10.75206836	     -5.62276880	      3.28712398	    -21.46368541	     -3.83756722	    -13.16094448	      0.09321022	     -3.92126562
      1.80783333	      0.67338911	      6.73495943	     -3.40214321	      1.46526725	      1.01285284	      0.26428779	     23.84798844	     -8.72752239	      2.82388780	    -51.55254789	      7.70324065	    -10.07414464	      3.98813087	     -3.72674105	     11.69188960	     10.93866709	     -5.30347954	      3.34013437	    -21.43824366	     -3.83207966	    -13.18748367	      0.22196421	     -4.14561270
